<?xml version="1.0" standalone="no"?>
<!DOCTYPE svg PUBLIC "-//W3C//DTD SVG 1.1//EN" "http://www.w3.org/Graphics/SVG/1.1/DTD/svg11.dtd" >
<svg xmlns="http://www.w3.org/2000/svg">
<metadata></metadata>
<defs>
<font id="gothamextra_light" horiz-adv-x="1165" >
<font-face units-per-em="2048" ascent="1638" descent="-410" />
<missing-glyph horiz-adv-x="589" />
<glyph unicode="&#xfb01;" horiz-adv-x="1169" d="M100 973v59h158v129q0 179 88 264q76 76 203 76q79 0 149 -26v-64q-70 27 -149 27q-225 0 -225 -283v-123h370v-59h-370v-973h-66v973h-158zM889 1317v125h88v-125h-88zM899 0v1032h66v-1032h-66z" />
<glyph unicode="&#xfb02;" horiz-adv-x="1169" d="M100 973v59h158v129q0 179 88 264q76 76 203 76q79 0 149 -26v-64q-70 27 -149 27q-225 0 -225 -283v-123h370v-59h-370v-973h-66v973h-158zM899 0v1495h66v-1495h-66z" />
<glyph unicode="&#xfb03;" horiz-adv-x="1865" d="M100 973v59h158v129q0 179 88 264q76 76 203 76q79 0 149 -26v-64q-70 27 -149 27q-225 0 -225 -283v-123h370v-59h-370v-973h-66v973h-158zM797 973v59h157v129q0 178 86 264q79 76 205 76q77 0 150 -26v-64q-71 27 -150 27q-225 0 -225 -283v-123h371v-59h-371v-973 h-66v973h-157zM1585 1317v125h88v-125h-88zM1595 0v1032h66v-1032h-66z" />
<glyph unicode="&#xfb04;" horiz-adv-x="1865" d="M100 973v59h158v129q0 179 88 264q76 76 203 76q79 0 149 -26v-64q-70 27 -149 27q-225 0 -225 -283v-123h370v-59h-370v-973h-66v973h-158zM797 973v59h157v129q0 178 86 264q79 76 205 76q77 0 150 -26v-64q-71 27 -150 27q-225 0 -225 -283v-123h371v-59h-371v-973 h-66v973h-157zM1595 0v1495h66v-1495h-66z" />
<glyph horiz-adv-x="2048" />
<glyph horiz-adv-x="2048" />
<glyph unicode="&#xd;" horiz-adv-x="2048" />
<glyph unicode=" "  horiz-adv-x="589" />
<glyph unicode="&#x09;" horiz-adv-x="589" />
<glyph unicode="&#xa0;" horiz-adv-x="589" />
<glyph unicode="!" horiz-adv-x="444" d="M174 0v133h98v-133h-98zM184 1243v191h76v-191l-20 -868h-35z" />
<glyph unicode="&#x22;" horiz-adv-x="708" d="M129 913l72 521h84v-7l-117 -514h-39zM434 913l72 521h84v-7l-117 -514h-39z" />
<glyph unicode="#" horiz-adv-x="1384" d="M100 399v64h252l88 520h-258v61h269l67 390h64l-66 -390h463l68 390h63l-68 -390h240v-61h-250l-88 -520h256v-64h-268l-68 -399h-63l67 399h-465l-67 -399h-64l68 399h-240zM416 463h463l90 520h-463z" />
<glyph unicode="$" horiz-adv-x="1282" d="M131 221l45 51q194 -191 440 -211v639q-226 48 -329 133.5t-103 237.5t120.5 256t309.5 105v120h64v-122q121 -7 218.5 -48.5t188.5 -117.5l-43 -54q-86 74 -173 113.5t-193 46.5v-618q236 -53 345 -139.5t109 -237.5q0 -164 -125 -269.5t-327 -105.5v-201h-64v203 q-272 21 -483 219zM254 1075q0 -123 80.5 -191.5t281.5 -115.5v606q-162 -1 -262 -87.5t-100 -211.5zM676 59h6q169 0 274 89t105 223q0 127 -87.5 196t-297.5 117v-625z" />
<glyph unicode="%" horiz-adv-x="1650" d="M111 1079v4q0 97 39 180.5t112.5 135t165.5 51.5q140 0 228.5 -108.5t88.5 -256.5v-4q0 -151 -89 -258.5t-228 -107.5t-228 107.5t-89 256.5zM180 1081q0 -128 71.5 -218.5t178.5 -90.5q109 0 177.5 89t68.5 216v4q0 127 -71 218.5t-179 91.5q-107 0 -176.5 -90.5 t-69.5 -215.5v-4zM264 0l537 729l516 705h69l-540 -738l-512 -696h-70zM905 348v4q0 149 89.5 258t228.5 109q140 0 228.5 -108.5t88.5 -256.5v-4q0 -151 -89 -258.5t-228 -107.5t-228.5 107.5t-89.5 256.5zM975 352q0 -128 71.5 -218.5t178.5 -90.5q110 0 177.5 88.5 t67.5 216.5v4q0 128 -70.5 219t-178.5 91q-107 0 -176.5 -90.5t-69.5 -215.5v-4z" />
<glyph unicode="&#x26;" horiz-adv-x="1388" d="M104 360v5q0 81 29 148t85 119t120 90t151 75q-96 104 -138 185t-42 163v4q0 125 94 217t246 92q139 0 230.5 -88.5t91.5 -208.5v-4q0 -121 -87 -210t-282 -169l416 -440q103 145 194 379l62 -23q-95 -244 -213 -403l256 -271l-51 -45l-246 263q-212 -258 -485 -258 q-187 0 -309 109.5t-122 270.5zM174 362q0 -134 101.5 -227.5t259.5 -93.5q243 0 442 242l-445 469q-82 -34 -143 -69.5t-112 -81.5t-77 -105t-26 -129v-5zM379 1149q0 -73 40 -148.5t140 -179.5q186 74 265 152t79 182v4q0 97 -72 168.5t-184 71.5q-120 0 -194 -73.5 t-74 -172.5v-4z" />
<glyph unicode="'" horiz-adv-x="405" d="M129 913l72 521h84v-7l-117 -514h-39z" />
<glyph unicode="(" horiz-adv-x="831" d="M141 588q0 275 140 498.5t409 375.5l29 -45q-249 -146 -378.5 -357.5t-129.5 -471.5t129.5 -472t378.5 -358l-29 -45q-268 152 -408.5 376t-140.5 499z" />
<glyph unicode=")" horiz-adv-x="831" d="M113 -242q249 146 378.5 358t129.5 472t-129.5 471.5t-378.5 357.5l28 45q269 -152 409 -375.5t140 -498.5t-140.5 -499t-408.5 -376z" />
<glyph unicode="*" horiz-adv-x="880" d="M160 1010l252 125l-252 125l33 55l231 -154l-14 277h61l-14 -277l231 154l33 -55l-252 -125l252 -125l-33 -56l-231 154l14 -277h-61l14 277l-231 -154z" />
<glyph unicode="+" horiz-adv-x="1245" d="M143 690v62h447v458h65v-458h447v-62h-447v-459h-65v459h-447z" />
<glyph unicode="," horiz-adv-x="389" d="M113 -152q45 23 62.5 58.5t14.5 93.5h-45v133h99v-117q0 -89 -26 -133.5t-87 -68.5z" />
<glyph unicode="-" horiz-adv-x="811" d="M143 573v72h525v-72h-525z" />
<glyph unicode="." horiz-adv-x="389" d="M145 0v133h99v-133h-99z" />
<glyph unicode="/" horiz-adv-x="989" d="M-37 -262l965 1896h67l-964 -1896h-68z" />
<glyph unicode="0" horiz-adv-x="1454" d="M137 715v4q0 147 41 280.5t115 235.5t187 162.5t247 60.5q135 0 248 -60t187 -161.5t114.5 -235t40.5 -282.5v-4q0 -147 -41 -280.5t-115 -236t-187 -163t-247 -60.5q-135 0 -248 60t-187 162t-114.5 235.5t-40.5 282.5zM209 717q0 -133 36 -254.5t101 -216t164.5 -151 t218.5 -56.5t217.5 55.5t163 149.5t100 215t35.5 254v4q0 133 -36 254.5t-101 216t-164.5 151t-218.5 56.5t-217.5 -55.5t-163 -149t-100 -214.5t-35.5 -255v-4z" />
<glyph unicode="1" horiz-adv-x="661" d="M66 1315l307 129h53v-1444h-68v1368l-270 -108z" />
<glyph unicode="2" horiz-adv-x="1179" d="M88 0v47l604 571q161 151 221 254.5t60 202.5q0 134 -102.5 226t-254.5 92q-269 0 -436 -281l-55 35q85 147 205 227t291 80q185 0 304 -107.5t119 -265.5v-4q0 -118 -65 -227t-242 -277l-536 -507h862v-66h-975z" />
<glyph unicode="3" horiz-adv-x="1159" d="M57 231l54 45q85 -111 203.5 -174t263.5 -63q163 0 278 95.5t115 242.5v4q0 113 -65 190.5t-175 112.5t-260 35h-59l-21 41l533 608h-791v66h885v-50l-526 -602q252 -5 400 -105t148 -294v-4q0 -116 -64 -209.5t-170 -144t-231 -50.5q-164 0 -296.5 69t-221.5 187z" />
<glyph unicode="4" horiz-adv-x="1306" d="M82 414l846 1030h59v-1018h236v-61h-236v-365h-65v365h-818zM172 426h750v915z" />
<glyph unicode="5" horiz-adv-x="1222" d="M115 205l51 49q88 -97 204.5 -156t241.5 -59q185 0 303.5 109.5t118.5 277.5v4q0 162 -119.5 264.5t-302.5 102.5q-180 0 -356 -95l-49 29l41 703h780v-66h-717l-37 -588q162 78 347 78q208 0 345.5 -119t137.5 -307v-4q0 -198 -139 -325.5t-357 -127.5 q-140 0 -272.5 65.5t-220.5 164.5z" />
<glyph unicode="6" horiz-adv-x="1294" d="M139 674v4q0 222 68 398t199 279t305 103q215 0 405 -166l-45 -53q-169 156 -366 156q-153 0 -266.5 -96t-171.5 -260t-58 -371v-121q45 149 171.5 241.5t291.5 92.5q209 0 353 -124.5t144 -314.5v-4q0 -192 -143 -327.5t-352 -135.5q-218 0 -361 146q-88 87 -131 218.5 t-43 334.5zM246 434q0 -163 125.5 -279t306.5 -116q179 0 299.5 117.5t120.5 279.5v4q0 163 -122 271t-306 108q-87 0 -166.5 -31.5t-135.5 -84t-89 -122t-33 -143.5v-4z" />
<glyph unicode="7" horiz-adv-x="1136" d="M119 1368v66h940v-48l-686 -1386h-76l684 1368h-862z" />
<glyph unicode="8" horiz-adv-x="1286" d="M115 373v4q0 130 99 228t253 134q-134 42 -215.5 129t-81.5 211v4q0 159 138.5 265t334.5 106t334.5 -106t138.5 -265v-4q0 -124 -81.5 -211t-215.5 -129q154 -38 252 -135.5t98 -226.5v-4q0 -167 -146 -280t-380 -113q-235 0 -381.5 112.5t-146.5 280.5zM186 371 q0 -137 125.5 -232.5t331.5 -95.5q207 0 332 94.5t125 231.5v4q0 144 -133.5 239t-325.5 95t-323.5 -94t-131.5 -238v-4zM240 1081q0 -138 117.5 -225.5t285.5 -87.5q170 0 285.5 86.5t115.5 224.5v4q0 131 -116.5 219.5t-286.5 88.5t-285.5 -87.5t-115.5 -218.5v-4z" />
<glyph unicode="9" horiz-adv-x="1294" d="M125 983v4q0 129 64.5 236.5t179 171t254.5 63.5q212 0 360 -145q174 -174 174 -555v-4q0 -224 -70 -400.5t-200.5 -277.5t-300.5 -101q-228 0 -422 179l45 53q179 -168 379 -168q152 0 266.5 96t173.5 258.5t59 364.5q0 72 -2 123q-43 -154 -169.5 -248t-292.5 -94 q-215 0 -356.5 125.5t-141.5 318.5zM197 985q0 -168 121.5 -275.5t308.5 -107.5q177 0 299.5 115.5t122.5 271.5v4q0 168 -125.5 285t-307.5 117q-178 0 -298.5 -120t-120.5 -286v-4z" />
<glyph unicode=":" horiz-adv-x="403" d="M152 0v133h98v-133h-98zM152 899v133h98v-133h-98z" />
<glyph unicode=";" horiz-adv-x="403" d="M119 -152q45 23 63 58.5t15 93.5h-45v133h98v-117q0 -90 -25.5 -134t-87.5 -68zM152 899v133h98v-133h-98z" />
<glyph unicode="&#x3c;" horiz-adv-x="1245" d="M121 698v45l946 486v-72l-856 -436l856 -436v-72z" />
<glyph unicode="=" horiz-adv-x="1245" d="M182 453v65h881v-65h-881zM182 926v65h881v-65h-881z" />
<glyph unicode="&#x3e;" horiz-adv-x="1245" d="M178 213v72l856 436l-856 436v72l946 -486v-45z" />
<glyph unicode="?" horiz-adv-x="1050" d="M57 1200q171 252 451 252q194 0 315 -112t121 -277v-4q0 -91 -36 -165.5t-98.5 -123.5t-140 -79t-165.5 -40l-17 -276h-38l-21 325l8 9q198 9 318 101t120 245v4q0 141 -102.5 236.5t-265.5 95.5q-120 0 -222 -61.5t-175 -168.5zM420 0v133h98v-133h-98z" />
<glyph unicode="@" horiz-adv-x="1968" d="M123 547q0 180 66.5 346.5t181 291t277.5 199t345 74.5q178 0 337.5 -65.5t272 -174.5t178.5 -255.5t66 -305.5q0 -126 -32.5 -225t-85.5 -156.5t-113 -86.5t-121 -29q-109 0 -170.5 63.5t-71.5 161.5q-60 -102 -151 -163.5t-203 -61.5q-151 0 -249.5 95.5t-98.5 252.5 q0 102 38 194.5t100.5 157t143 102t164.5 37.5q117 0 200 -62.5t110 -160.5l34 185l64 -11l-74 -407q-14 -74 -14 -129q0 -95 45.5 -149t136.5 -54q53 0 103.5 26.5t94.5 78t70.5 140t26.5 201.5q0 146 -61.5 283t-166.5 240.5t-256 166t-319 62.5q-173 0 -326.5 -70 t-260 -187.5t-168.5 -275.5t-62 -329q0 -238 109.5 -428.5t301 -297t427.5 -106.5q267 0 489 138l25 -39q-227 -148 -516 -148q-186 0 -350 66.5t-282 182t-186.5 280t-68.5 352.5zM621 512q0 -134 78.5 -211.5t205.5 -77.5q132 0 244 107q61 61 96 142.5t35 166.5 q0 126 -81 211.5t-202 85.5q-138 0 -249 -111q-127 -124 -127 -313z" />
<glyph unicode="A" horiz-adv-x="1589" d="M82 0l680 1444h65l680 -1444h-75l-195 418h-887l-196 -418h-72zM381 481h825l-413 881z" />
<glyph unicode="B" horiz-adv-x="1482" d="M213 0v1434h590q250 0 375 -125q92 -92 92 -232v-4q0 -131 -74 -219t-190 -121q150 -28 246 -119t96 -231v-4q0 -178 -137 -278.5t-377 -100.5h-621zM283 63h553q207 0 323.5 83.5t116.5 230.5v4q0 148 -118.5 229.5t-313.5 81.5h-561v-629zM283 756h534q168 0 275.5 81 t107.5 230v4q0 137 -106 218t-293 81h-518v-614z" />
<glyph unicode="C" horiz-adv-x="1497" d="M150 713v4q0 200 90.5 369.5t254 270.5t363.5 101q183 0 307 -57.5t244 -169.5l-49 -51q-50 48 -97 83t-108.5 67t-136.5 48.5t-162 16.5q-179 0 -325 -91.5t-228 -246t-82 -338.5v-4q0 -183 83 -338.5t230 -246.5t324 -91q288 0 510 229l49 -47q-242 -246 -563 -246 q-199 0 -361 99t-252.5 268t-90.5 371z" />
<glyph unicode="D" horiz-adv-x="1591" d="M213 0v1434h467q166 0 309 -55.5t242 -151t155 -227t56 -281.5v-4q0 -150 -56 -281.5t-155 -227t-242 -151t-309 -55.5h-467zM283 63h399q151 0 280.5 51t218.5 138.5t139 206.5t50 254v4q0 135 -50 254.5t-139 207.5t-219 139.5t-282 51.5h-397v-1307z" />
<glyph unicode="E" horiz-adv-x="1361" d="M213 0v1434h1010v-64h-940v-616h850v-64h-850v-627h950v-63h-1020z" />
<glyph unicode="F" horiz-adv-x="1304" d="M213 0v1434h999v-64h-929v-635h839v-63h-839v-672h-70z" />
<glyph unicode="G" horiz-adv-x="1599" d="M150 713v4q0 115 31.5 224.5t93.5 202.5t146.5 163.5t197.5 110.5t239 40q161 0 277.5 -45.5t230.5 -140.5l-45 -53q-104 87 -211.5 131.5t-255.5 44.5q-139 0 -259 -56t-201 -150t-127 -216t-46 -254v-4q0 -139 44.5 -262.5t125.5 -216t203.5 -146t269.5 -53.5 q141 0 267.5 52t222.5 132v441h-510v67h577v-534q-108 -98 -251.5 -159t-307.5 -61q-165 0 -301 59t-225 160t-137.5 234.5t-48.5 284.5z" />
<glyph unicode="H" horiz-adv-x="1546" d="M213 0v1434h70v-680h981v680h69v-1434h-69v690h-981v-690h-70z" />
<glyph unicode="I" horiz-adv-x="524" d="M227 0v1434h70v-1434h-70z" />
<glyph unicode="J" horiz-adv-x="1105" d="M68 258l59 33q116 -250 365 -250q155 0 253.5 111.5t98.5 322.5v959h69v-951q0 -255 -133 -391q-118 -115 -293 -115q-143 0 -251 74.5t-168 206.5z" />
<glyph unicode="K" horiz-adv-x="1452" d="M213 0v1434h70v-959l960 959h96l-624 -617l649 -817h-90l-608 770l-383 -379v-391h-70z" />
<glyph unicode="L" horiz-adv-x="1224" d="M213 0v1434h70v-1371h864v-63h-934z" />
<glyph unicode="M" horiz-adv-x="1767" d="M213 0v1434h66l606 -873l604 873h65v-1434h-69v1313l-600 -860h-4l-600 860v-1313h-68z" />
<glyph unicode="N" horiz-adv-x="1605" d="M213 0v1434h63l1049 -1315v1315h68v-1434h-56l-1056 1325v-1325h-68z" />
<glyph unicode="O" horiz-adv-x="1730" d="M150 715v4q0 146 51.5 280t143 236t227.5 162.5t294 60.5t294 -60.5t227 -162.5t142.5 -236t51.5 -280v-4q0 -146 -51.5 -280.5t-143.5 -236.5t-228 -162.5t-294 -60.5q-127 0 -240.5 39t-199 109t-148 162.5t-94.5 202.5t-32 227zM221 717q0 -135 48 -258.5 t131.5 -216.5t205.5 -148t262 -55q139 0 260 54.5t204 146.5t130 215t47 258v4q0 135 -48 258.5t-131 216.5t-205 148t-261 55q-140 0 -261.5 -54.5t-204.5 -146.5t-130 -215t-47 -258v-4z" />
<glyph unicode="P" horiz-adv-x="1368" d="M211 0v1434h512q253 0 398 -116t145 -319v-4q0 -140 -71.5 -241.5t-197 -152t-290.5 -50.5h-426v-551h-70zM281 616h428q225 0 356 100t131 277v4q0 176 -128 274.5t-351 98.5h-436v-754z" />
<glyph unicode="Q" horiz-adv-x="1730" d="M150 715v4q0 146 51.5 280t143 236t227.5 162.5t294 60.5t294 -60.5t227 -162.5t142.5 -236t51.5 -280v-4q0 -145 -51 -278.5t-144 -235.5l207 -176l-47 -54l-205 183q-198 -179 -477 -179q-127 0 -240.5 39t-199 109t-148 162.5t-94.5 202.5t-32 227zM221 717 q0 -135 48 -258.5t131.5 -216.5t205.5 -148t262 -55q241 0 422 160l-301 260l47 53l301 -266q82 93 127 213.5t45 253.5v4q0 135 -48 258.5t-131 216.5t-205 148t-261 55q-140 0 -261.5 -54.5t-204.5 -146.5t-130 -215t-47 -258v-4z" />
<glyph unicode="R" horiz-adv-x="1482" d="M213 0v1434h592q268 0 409 -138q105 -108 105 -266v-4q0 -177 -123.5 -282t-327.5 -123l478 -621h-89l-466 612h-508v-612h-70zM283 676h503q217 0 340 95.5t123 250.5v4q0 162 -118 253t-330 91h-518v-694z" />
<glyph unicode="S" horiz-adv-x="1312" d="M121 209l47 51q231 -217 528 -217q184 0 297 89t113 226v4q0 87 -38 145t-135 103.5t-269 81.5q-262 52 -375 142t-113 245v4q0 156 132.5 263.5t332.5 107.5q273 0 487 -168l-43 -55q-202 160 -448 160q-172 0 -281.5 -88.5t-109.5 -212.5v-5q0 -86 38 -144 t135.5 -103.5t270.5 -81.5q264 -53 375 -143.5t111 -243.5v-4q0 -168 -133.5 -276.5t-350.5 -108.5q-324 0 -571 229z" />
<glyph unicode="T" horiz-adv-x="1245" d="M78 1370v64h1091v-64h-512v-1370h-69v1370h-510z" />
<glyph unicode="U" horiz-adv-x="1546" d="M190 618v816h70v-811q0 -280 139 -431t377 -151t374 147.5t136 429.5v816h70v-809q0 -313 -157.5 -480.5t-424.5 -167.5q-130 0 -236.5 41t-184.5 120t-120.5 201.5t-42.5 278.5z" />
<glyph unicode="V" horiz-adv-x="1507" d="M82 1434h76l598 -1356l598 1356h71l-643 -1444h-57z" />
<glyph unicode="W" horiz-adv-x="2152" d="M94 1434h76l451 -1334l430 1338h53l432 -1340l451 1336h71l-495 -1444h-58l-430 1317l-428 -1317h-57z" />
<glyph unicode="X" horiz-adv-x="1417" d="M88 0l578 729l-557 705h81l519 -660l518 660h82l-557 -705l577 -729h-82l-538 684l-539 -684h-82z" />
<glyph unicode="Y" horiz-adv-x="1394" d="M53 1434h86l561 -785l557 785h84l-608 -846v-588h-69v588z" />
<glyph unicode="Z" horiz-adv-x="1396" d="M137 0v39l1016 1331h-981v64h1079v-39l-1015 -1332h1011v-63h-1110z" />
<glyph unicode="[" horiz-adv-x="856" d="M201 -266v1700h547v-52h-482v-1597h482v-51h-547z" />
<glyph unicode="\" horiz-adv-x="989" d="M-8 1634h69l965 -1896h-70z" />
<glyph unicode="]" horiz-adv-x="856" d="M109 -215h481v1597h-481v52h546v-1700h-546v51z" />
<glyph unicode="^" horiz-adv-x="1024" d="M166 1012l321 428h50l321 -428h-63l-283 360l-285 -360h-61z" />
<glyph unicode="_" horiz-adv-x="1167" d="M-4 -254h1175v-59h-1175v59z" />
<glyph unicode="`" horiz-adv-x="1024" d="M352 1427l80 39l178 -247h-51z" />
<glyph unicode="a" d="M104 291v4q0 157 127 244.5t330 87.5q193 0 369 -58v70q0 172 -97 260t-272 88q-164 0 -336 -86l-24 57q190 91 364 91q215 0 328 -113q102 -105 102 -293v-643h-65v215q-46 -98 -158 -169t-276 -71q-76 0 -145.5 20.5t-125 58.5t-88.5 99.5t-33 137.5zM174 295 q0 -122 94.5 -190t231.5 -68q184 0 308 101.5t124 242.5v127q-173 57 -373 57q-174 0 -279.5 -70.5t-105.5 -195.5v-4z" />
<glyph unicode="b" horiz-adv-x="1345" d="M190 0v1495h66v-747q57 137 176.5 223t280.5 86q104 0 197.5 -40.5t162.5 -110.5t109.5 -171t40.5 -217v-4q0 -115 -40.5 -216t-109.5 -171.5t-162.5 -111t-197.5 -40.5q-163 0 -282 85.5t-175 220.5v-281h-66zM252 514q0 -199 133 -337t322 -138q195 0 320.5 133 t125.5 340v4q0 204 -127 340.5t-319 136.5q-191 0 -323 -138t-132 -337v-4z" />
<glyph unicode="c" horiz-adv-x="1157" d="M119 514v4q0 144 69 267.5t191 197.5t268 74q131 0 228.5 -50.5t183.5 -140.5l-47 -47q-165 176 -367 176q-193 0 -325 -139t-132 -336v-4q0 -196 134.5 -337.5t326.5 -141.5q205 0 371 184l47 -41q-175 -205 -422 -205q-145 0 -266.5 73.5t-190.5 197t-69 268.5z" />
<glyph unicode="d" horiz-adv-x="1345" d="M123 514v4q0 115 40.5 216t109.5 171.5t162.5 111t197.5 40.5q163 0 282 -85t175 -220v743h65v-1495h-65v285q-57 -137 -176.5 -223.5t-280.5 -86.5q-104 0 -197.5 40.5t-162.5 110.5t-109.5 171t-40.5 217zM193 516q0 -204 127 -340.5t319 -136.5q191 0 323 138t132 337 v4q0 199 -133 337t-322 138q-195 0 -320.5 -133t-125.5 -340v-4z" />
<glyph unicode="e" horiz-adv-x="1193" d="M119 516v4q0 150 63.5 273t176.5 193.5t253 70.5q113 0 204.5 -45.5t149 -122.5t88.5 -173.5t31 -201.5v-22h-895q9 -205 136.5 -330t306.5 -125q114 0 209.5 52.5t161.5 137.5l49 -39q-163 -213 -422 -213q-104 0 -197.5 38.5t-163 107.5t-110.5 171.5t-41 223.5z M190 551h824q-4 86 -32 164.5t-77.5 141.5t-126.5 100.5t-170 37.5q-174 0 -291.5 -126t-126.5 -318z" />
<glyph unicode="f" horiz-adv-x="696" d="M100 973v59h158v129q0 179 88 264q76 76 203 76q79 0 149 -26v-64q-70 27 -149 27q-225 0 -225 -283v-123h370v-59h-370v-973h-66v973h-158z" />
<glyph unicode="g" horiz-adv-x="1335" d="M123 563v4q0 137 70 250.5t185.5 176.5t248.5 63q151 0 269 -76t181 -197v248h68v-874q0 -224 -133 -357q-135 -135 -371 -135q-258 0 -471 160l39 53q196 -149 432 -149q200 0 318 112t118 324v186q-63 -124 -181 -200t-269 -76q-133 0 -248.5 62.5t-185.5 175.5 t-70 249zM195 565q0 -179 128.5 -302.5t309.5 -123.5q119 0 222.5 55.5t165.5 153.5t62 215v4q0 117 -62 215.5t-165.5 154.5t-222.5 56q-183 0 -310.5 -121.5t-127.5 -302.5v-4z" />
<glyph unicode="h" horiz-adv-x="1249" d="M190 0v1495h66v-709q19 49 51.5 94.5t80.5 86.5t117 65.5t148 24.5q200 0 313 -124t113 -329v-604h-65v594q0 184 -96 292.5t-273 108.5q-164 0 -276.5 -118.5t-112.5 -294.5v-582h-66z" />
<glyph unicode="i" horiz-adv-x="473" d="M193 1317v125h88v-125h-88zM203 0v1032h67v-1032h-67z" />
<glyph unicode="j" horiz-adv-x="475" d="M-16 -270q35 -9 75 -9q66 0 107 47t41 132v1132h65v-1128q0 -120 -56.5 -181t-154.5 -61q-41 0 -77 8v60zM195 1317v125h88v-125h-88z" />
<glyph unicode="k" horiz-adv-x="1126" d="M190 0v1495h66v-1130l686 667h88l-475 -457l500 -575h-82l-463 530l-254 -243v-287h-66z" />
<glyph unicode="l" horiz-adv-x="473" d="M203 0v1495h67v-1495h-67z" />
<glyph unicode="m" horiz-adv-x="1912" d="M190 0v1032h66v-231q38 103 131 179.5t221 76.5q146 0 237 -76t128 -197q42 112 140 192.5t230 80.5q180 0 286 -116.5t106 -324.5v-616h-66v610q0 184 -89 284.5t-241 100.5q-137 0 -240.5 -112t-103.5 -281v-602h-65v612q0 181 -89.5 282t-238.5 101 q-138 0 -242 -115.5t-104 -279.5v-600h-66z" />
<glyph unicode="n" horiz-adv-x="1249" d="M190 0v1032h66v-246q19 49 51.5 94.5t80.5 86.5t117 65.5t148 24.5q200 0 313 -124t113 -329v-604h-65v594q0 184 -96 292.5t-273 108.5q-164 0 -276.5 -118.5t-112.5 -294.5v-582h-66z" />
<glyph unicode="o" horiz-adv-x="1302" d="M117 512v4q0 144 67 267.5t191 198.5t278 75q153 0 276.5 -74t190 -196.5t66.5 -266.5v-4q0 -144 -66.5 -267.5t-190.5 -198.5t-278 -75q-153 0 -276.5 74t-190.5 196.5t-67 266.5zM188 514q0 -129 59.5 -238t167 -174t238.5 -65q133 0 239.5 65t165 174t58.5 238v4 q0 129 -60 238t-168 174t-239 65q-200 0 -330.5 -139t-130.5 -338v-4z" />
<glyph unicode="p" horiz-adv-x="1345" d="M190 -328v1360h66v-284q57 137 176.5 223t280.5 86q104 0 197.5 -40.5t162.5 -110.5t109.5 -171t40.5 -217v-4q0 -115 -40.5 -216t-109.5 -171.5t-162.5 -111t-197.5 -40.5q-163 0 -282 85.5t-175 220.5v-609h-66zM252 514q0 -199 133 -337t322 -138q195 0 320.5 133 t125.5 340v4q0 204 -127 340.5t-319 136.5q-191 0 -323 -138t-132 -337v-4z" />
<glyph unicode="q" horiz-adv-x="1345" d="M123 514v4q0 115 40.5 216t109.5 171.5t162.5 111t197.5 40.5q163 0 282 -85t175 -220v280h65v-1360h-65v613q-57 -137 -176.5 -223.5t-280.5 -86.5q-104 0 -197.5 40.5t-162.5 110.5t-109.5 171t-40.5 217zM193 516q0 -204 127 -340.5t319 -136.5q191 0 323 138t132 337 v4q0 199 -133 337t-322 138q-195 0 -320.5 -133t-125.5 -340v-4z" />
<glyph unicode="r" horiz-adv-x="739" d="M190 0v1032h66v-315q50 144 166 242q112 94 260 94h12v-68h-10q-121 0 -220.5 -71t-153.5 -184.5t-54 -240.5v-489h-66z" />
<glyph unicode="s" horiz-adv-x="1009" d="M94 133l39 51q180 -141 385 -141q126 0 210.5 60.5t84.5 154.5v4q0 27 -6.5 50t-20.5 42t-29.5 34.5t-41 29t-46.5 23.5t-54 21t-56 17.5t-59 16.5q-50 14 -81 24t-73.5 25.5t-68.5 30t-55 35.5t-44.5 44t-26 54t-10.5 67v4q0 117 98.5 194t254.5 77q90 0 185.5 -30 t176.5 -85l-37 -55q-151 108 -327 108q-126 0 -204.5 -58t-78.5 -145v-4q0 -37 17.5 -68t43 -52t71 -41.5t83 -32.5t98.5 -29q66 -18 110.5 -32.5t96 -39.5t81.5 -53.5t50.5 -71t20.5 -94.5v-4q0 -126 -104.5 -204t-262.5 -78q-111 0 -223 40.5t-197 110.5z" />
<glyph unicode="t" horiz-adv-x="786" d="M88 973v59h158v346h65v-346h375v-59h-375v-703q0 -112 56 -169.5t159 -57.5q78 0 156 37v-64q-69 -34 -162 -34q-127 0 -200.5 72.5t-73.5 209.5v709h-158z" />
<glyph unicode="u" horiz-adv-x="1249" d="M170 428v604h66v-594q0 -184 96 -292.5t272 -108.5q164 0 276.5 119t112.5 295v581h66v-1032h-66v246q-19 -49 -51.5 -94.5t-80.5 -86.5t-117 -65.5t-148 -24.5q-200 0 -313 124t-113 329z" />
<glyph unicode="v" d="M84 1032h76l424 -960l426 960h71l-471 -1040h-53z" />
<glyph unicode="w" horiz-adv-x="1693" d="M98 1032h74l324 -946l325 952h53l326 -952l326 946h67l-366 -1040h-56l-323 942l-326 -942h-55z" />
<glyph unicode="x" horiz-adv-x="1118" d="M78 0l440 524l-424 508h82l383 -463l387 463h78l-424 -506l440 -526h-82l-401 481l-401 -481h-78z" />
<glyph unicode="y" horiz-adv-x="1181" d="M84 1032h74l454 -960l416 960h70l-465 -1059q-79 -178 -153 -242.5t-183 -64.5q-102 0 -199 51l27 56q82 -45 174 -45q89 0 149 57t132 217z" />
<glyph unicode="z" horiz-adv-x="1052" d="M92 0v37l770 936h-743v59h839v-37l-768 -936h773v-59h-871z" />
<glyph unicode="{" horiz-adv-x="933" d="M102 559v57h45q252 0 252 267v161q0 60 4.5 101.5t18 86.5t40.5 77t70.5 62.5t109.5 53t155 39.5l10 -49q-67 -15 -118.5 -33t-87.5 -37t-61 -45t-39 -50.5t-22 -61t-10 -68.5t-2 -80v-159q0 -125 -56 -199.5t-165 -93.5q221 -43 221 -293v-160q0 -48 2 -80t10 -68.5 t22 -61t39 -50.5t61 -45t87.5 -37t118.5 -33l-10 -49q-89 17 -155 39.5t-109.5 53t-70.5 62.5t-40.5 77t-18 86.5t-4.5 101.5v162q0 266 -252 266h-45z" />
<glyph unicode="|" horiz-adv-x="550" d="M246 -262v1896h59v-1896h-59z" />
<glyph unicode="}" horiz-adv-x="933" d="M127 -240q67 15 118.5 33t87.5 37t61 45t39 50.5t22 61t10 68.5t2 80v160q0 125 56 199.5t165 93.5q-221 43 -221 293v159q0 48 -2 80t-10 68.5t-22 61t-39 50.5t-61 45t-87.5 37t-118.5 33l10 49q89 -17 155 -39.5t109.5 -53t70.5 -62.5t40.5 -77t18 -86.5t4.5 -101.5 v-161q0 -267 251 -267h45v-57h-45q-251 0 -251 -266v-162q0 -60 -4.5 -101.5t-18 -86.5t-40.5 -77t-70.5 -62.5t-109.5 -53t-155 -39.5z" />
<glyph unicode="~" horiz-adv-x="917" d="M170 520q22 94 61.5 134t96.5 40q41 0 141 -53q85 -51 123 -51t62.5 26t47.5 93l46 -13q-22 -93 -61.5 -133.5t-96.5 -40.5q-43 0 -141 56q-88 49 -123 49q-38 0 -63 -25.5t-48 -91.5z" />
<glyph unicode="&#xa1;" horiz-adv-x="444" d="M174 1300v134h98v-134h-98zM184 0v190l21 869h35l20 -869v-190h-76z" />
<glyph unicode="&#xa2;" d="M135 725v2q0 144 69.5 268.5t191.5 198.5t266 74q8 0 24 -1t23 -1l36 180h66l-37 -191q159 -32 301 -178l-47 -47q-129 133 -268 164l-185 -938q36 -8 84 -8q216 0 377 182l45 -39q-176 -205 -426 -205q-47 0 -90 9l-41 -207h-63l43 221q-163 51 -266 194t-103 322z M203 729q0 -159 87.5 -285t227.5 -174l180 934q-12 2 -39 2q-125 0 -230.5 -64.5t-165.5 -174.5t-60 -238z" />
<glyph unicode="&#xa3;" horiz-adv-x="1263" d="M137 0v37l182 26v578h-182v66h182v239q0 253 136 389q119 119 303 119q250 0 405 -223l-53 -41q-68 95 -152.5 148t-201.5 53q-153 0 -252 -99q-115 -112 -115 -342v-243h615v-66h-615v-578h766v-63h-1018z" />
<glyph unicode="&#xa5;" horiz-adv-x="1320" d="M53 1434h86l525 -783l522 783h82l-547 -797h399v-62h-426v-264h426v-61h-426v-250h-67v250h-428v61h428v264h-428v62h399z" />
<glyph unicode="&#xa7;" horiz-adv-x="1294" d="M143 741v4q0 97 97 162.5t262 65.5q-232 75 -232 229v4q0 108 101 178t268 70q124 0 241.5 -45.5t192.5 -116.5l-49 -49q-67 62 -173 104t-216 42q-136 0 -213.5 -51.5t-77.5 -131.5v-4q0 -86 96.5 -140.5t311.5 -98.5q208 -43 304.5 -107.5t96.5 -163.5v-4 q0 -97 -96.5 -162t-261.5 -65q229 -74 229 -230v-4q0 -108 -100 -177.5t-267 -69.5q-125 0 -243 45.5t-191 115.5l47 49q68 -62 174.5 -103.5t217.5 -41.5q136 0 213 51t77 131v4q0 86 -96.5 141t-310.5 99q-209 43 -305.5 107t-96.5 163zM213 748q0 -72 79 -123t263 -90 q119 -29 236 -29q124 0 208 51t84 125v4q0 72 -79 123t-263 90q-121 29 -235 29q-124 0 -208.5 -51t-84.5 -125v-4z" />
<glyph unicode="&#xa8;" horiz-adv-x="1024" d="M315 1241v127h101v-127h-101zM608 1241v127h101v-127h-101z" />
<glyph unicode="&#xa9;" horiz-adv-x="1699" d="M109 715v4q0 150 58.5 286.5t157 235.5t236 158t289.5 59t290 -58.5t236.5 -157.5t156.5 -235.5t58 -287.5v-4q0 -150 -58.5 -286.5t-157 -236t-236 -158.5t-289.5 -59q-203 0 -374 99.5t-269 269.5t-98 371zM156 715q0 -189 91.5 -349t251.5 -254t351 -94t351 94.5 t251.5 254.5t91.5 348v4q0 141 -54 270t-146.5 222t-221.5 148.5t-272 55.5t-272 -55.5t-221.5 -149t-146.5 -222t-54 -269.5v-4zM489 723v4q0 160 108 274.5t267 114.5q96 0 162 -32t127 -91l-43 -43q-111 111 -248 111q-133 0 -222 -97.5t-89 -234.5q-4 0 0 -4 q0 -135 90.5 -233.5t222.5 -98.5q81 0 139 29t113 86l41 -39q-61 -63 -129.5 -97t-165.5 -34q-158 0 -265.5 113t-107.5 272z" />
<glyph unicode="&#xaa;" horiz-adv-x="835" d="M152 631v51h510v-51h-510zM156 1022v4q0 88 70 136t184 48q102 0 188 -26v26q0 88 -49.5 133.5t-140.5 45.5q-83 0 -181 -50l-20 50q104 49 205 49q117 0 184 -64q55 -55 55 -162v-354h-53v103q-31 -50 -87.5 -82.5t-135.5 -32.5q-89 0 -154 46.5t-65 129.5zM213 1026 q0 -60 48 -95.5t116 -35.5q93 0 157 51t64 125v66q-95 26 -192 26q-87 0 -140 -36t-53 -97v-4z" />
<glyph unicode="&#xab;" horiz-adv-x="989" d="M96 516v12l346 424l45 -32l-313 -398l313 -397l-45 -33zM471 516v12l348 424l45 -32l-313 -398l313 -397l-45 -33z" />
<glyph unicode="&#xad;" horiz-adv-x="811" d="M143 573v72h525v-72h-525z" />
<glyph unicode="&#xae;" horiz-adv-x="851" d="M70 1094v2q0 147 104 252.5t252 105.5q150 0 253 -104.5t103 -251.5v-2q0 -147 -104 -253t-252 -106q-150 0 -253 105t-103 252zM106 1096q0 -135 92.5 -229.5t227.5 -94.5q134 0 226.5 95.5t92.5 228.5q0 135 -92 229t-227 94q-134 0 -227 -95t-93 -228zM295 922v358 h156q59 0 96 -27t37 -79q0 -42 -25.5 -70t-66.5 -39l104 -143h-57l-99 137h-100v-137h-45zM340 1098h104q43 0 68 19.5t25 51.5q0 33 -24.5 51.5t-66.5 18.5h-106v-141z" />
<glyph unicode="&#xaf;" horiz-adv-x="1024" d="M231 1272v61h562v-61h-562z" />
<glyph unicode="&#xb0;" horiz-adv-x="897" d="M150 1151v4q0 118 89.5 204.5t209.5 86.5t209.5 -86.5t89.5 -204.5v-4q0 -118 -89.5 -204.5t-209.5 -86.5t-209.5 86.5t-89.5 204.5zM215 1151q0 -94 69 -162.5t165 -68.5t164.5 68.5t68.5 162.5v4q0 95 -68.5 164.5t-164.5 69.5t-165 -70t-69 -164v-4z" />
<glyph unicode="&#xb1;" horiz-adv-x="1245" d="M152 0v61h942v-61h-942zM152 752v61h438v428h65v-428h439v-61h-439v-428h-65v428h-438z" />
<glyph unicode="&#xb2;" horiz-adv-x="819" d="M125 872v50l324 282q91 79 129 135t38 121q0 74 -53.5 123t-136.5 49q-140 0 -242 -162l-45 27q57 87 127 136.5t164 49.5q103 0 173.5 -63.5t70.5 -155.5q0 -44 -10.5 -79.5t-37.5 -72t-57 -66.5t-84 -77l-282 -243h481v-54h-559z" />
<glyph unicode="&#xb3;" horiz-adv-x="819" d="M113 993l43 37q103 -127 250 -127q85 0 145.5 51t60.5 131q0 85 -69.5 132t-186.5 47h-51l-12 34l295 312h-438v53h512v-49l-287 -301q137 -3 217 -62.5t80 -163.5q0 -101 -79.5 -168t-189.5 -67q-176 0 -290 141z" />
<glyph unicode="&#xb4;" horiz-adv-x="1024" d="M414 1219l178 247l80 -39l-207 -208h-51z" />
<glyph unicode="&#xb6;" horiz-adv-x="956" d="M106 999v5q0 131 68 229.5t186.5 149.5t270.5 51h121v-1434h-72v567h-18q-156 0 -281 49.5t-200 149t-75 233.5z" />
<glyph unicode="&#xb7;" horiz-adv-x="389" d="M145 537v133h99v-133h-99z" />
<glyph unicode="&#xb8;" horiz-adv-x="1024" d="M348 -260l178 270h54l-160 -305z" />
<glyph unicode="&#xb9;" horiz-adv-x="665" d="M137 1593l225 84h48v-805h-58v744l-200 -72z" />
<glyph unicode="&#xba;" horiz-adv-x="837" d="M125 1141v4q0 124 83.5 211.5t211.5 87.5q127 0 210 -86.5t83 -208.5v-4q0 -123 -84 -211t-211 -88q-128 0 -210.5 86.5t-82.5 208.5zM131 631v51h576v-51h-576zM184 1145q0 -102 68 -174t170 -72q100 0 165.5 71t65.5 171v4q0 102 -68 174t-167 72q-101 0 -167.5 -71 t-66.5 -171v-4z" />
<glyph unicode="&#xbb;" horiz-adv-x="989" d="M125 125l313 397l-313 398l45 32l348 -424v-12l-348 -424zM502 125l313 397l-313 398l45 32l346 -424v-12l-346 -424z" />
<glyph unicode="&#xbc;" horiz-adv-x="1689" d="M127 1364l225 84h47v-805h-57v743l-201 -71zM297 0l502 727l475 707h67l-501 -727l-475 -707h-68zM985 238l414 565h65v-561h123v-49h-123v-197h-53v197h-410zM1051 242h360v491z" />
<glyph unicode="&#xbd;" horiz-adv-x="1689" d="M127 1364l225 84h47v-805h-57v743l-201 -71zM276 0l502 727l475 707h68l-502 -727l-475 -707h-68zM1016 0v49l323 283q91 79 129.5 135t38.5 121q0 74 -53.5 123t-136.5 49q-140 0 -242 -162l-45 27q57 87 127 136.5t164 49.5q103 0 173.5 -63.5t70.5 -155.5 q0 -44 -10.5 -79.5t-37.5 -72t-57 -66.5t-84 -77l-282 -244h481v-53h-559z" />
<glyph unicode="&#xbe;" horiz-adv-x="1843" d="M113 764l43 37q103 -127 250 -127q85 0 145.5 51t60.5 131q0 85 -69 131.5t-187 46.5h-51l-12 35l295 311h-438v54h512v-50l-287 -301q137 -3 217 -62t80 -163q0 -101 -79.5 -168t-189.5 -67q-176 0 -290 141zM440 0l502 727l475 707h68l-502 -727l-475 -707h-68z M1139 238l413 565h66v-561h123v-49h-123v-197h-53v197h-410zM1204 242h361v491z" />
<glyph unicode="&#xbf;" horiz-adv-x="1050" d="M106 371v4q0 91 36.5 165t98.5 123.5t140 79t166 39.5l16 277h39l21 -326l-9 -8q-198 -9 -318 -101t-120 -245v-4q0 -141 103 -236.5t266 -95.5q120 0 222 61t175 168l51 -39q-171 -251 -450 -251q-194 0 -315.5 112t-121.5 277zM532 1300v134h99v-134h-99z" />
<glyph unicode="&#xc0;" horiz-adv-x="1589" d="M82 0l680 1444h65l680 -1444h-75l-195 418h-887l-196 -418h-72zM381 481h825l-413 881zM553 1761l76 39l198 -219h-59z" />
<glyph unicode="&#xc1;" horiz-adv-x="1589" d="M82 0l680 1444h65l680 -1444h-75l-195 418h-887l-196 -418h-72zM381 481h825l-413 881zM760 1581l198 219l76 -39l-215 -180h-59z" />
<glyph unicode="&#xc2;" horiz-adv-x="1589" d="M82 0l680 1444h65l680 -1444h-75l-195 418h-887l-196 -418h-72zM381 481h825l-413 881zM549 1575l213 207h61l213 -207h-69l-174 141l-177 -141h-67z" />
<glyph unicode="&#xc3;" horiz-adv-x="1589" d="M82 0l680 1444h65l680 -1444h-75l-195 418h-887l-196 -418h-72zM381 481h825l-413 881zM510 1593q43 162 156 162q45 0 145 -51q80 -43 119 -43q37 0 62 24t48 84l45 -12q-40 -162 -155 -162q-46 0 -144 52q-84 43 -118 43q-37 0 -62.5 -24.5t-48.5 -84.5z" />
<glyph unicode="&#xc4;" horiz-adv-x="1589" d="M82 0l680 1444h65l680 -1444h-75l-195 418h-887l-196 -418h-72zM381 481h825l-413 881zM584 1604v125h106v-125h-106zM899 1604v125h107v-125h-107z" />
<glyph unicode="&#xc5;" horiz-adv-x="1589" d="M82 0l649 1378q-65 17 -106 65.5t-41 112.5q0 79 61.5 133t149.5 54t149.5 -54t61.5 -133q0 -64 -41 -112t-107 -66l649 -1378h-75l-195 418h-887l-196 -418h-72zM381 481h825l-413 881zM637 1556q0 -60 46 -99.5t112 -39.5q65 0 110 39t45 100t-45 101.5t-110 40.5 t-111.5 -40.5t-46.5 -101.5z" />
<glyph unicode="&#xc6;" horiz-adv-x="2101" d="M16 0l899 1434h1047v-64h-907v-616h819v-64h-819v-627h917v-63h-987v418h-633l-260 -418h-76zM391 481h594v889h-37z" />
<glyph unicode="&#xc7;" horiz-adv-x="1497" d="M150 713v4q0 200 90.5 369.5t254 270.5t363.5 101q183 0 307 -57.5t244 -169.5l-49 -51q-50 48 -97 83t-108.5 67t-136.5 48.5t-162 16.5q-179 0 -325 -91.5t-228 -246t-82 -338.5v-4q0 -183 83 -338.5t230 -246.5t324 -91q288 0 510 229l49 -47q-110 -112 -242 -177 t-303 -69l-141 -270l-72 35l156 237q-143 7 -267 68t-211 159t-137 230.5t-50 278.5z" />
<glyph unicode="&#xc8;" horiz-adv-x="1361" d="M213 0v1434h1010v-64h-940v-616h850v-64h-850v-627h950v-63h-1020zM481 1747l76 39l199 -219h-60z" />
<glyph unicode="&#xc9;" horiz-adv-x="1361" d="M213 0v1434h1010v-64h-940v-616h850v-64h-850v-627h950v-63h-1020zM688 1567l199 219l76 -39l-215 -180h-60z" />
<glyph unicode="&#xca;" horiz-adv-x="1361" d="M213 0v1434h1010v-64h-940v-616h850v-64h-850v-627h950v-63h-1020zM477 1567l213 207h62l213 -207h-70l-174 141l-176 -141h-68z" />
<glyph unicode="&#xcb;" horiz-adv-x="1361" d="M213 0v1434h1010v-64h-940v-616h850v-64h-850v-627h950v-63h-1020zM512 1589v125h106v-125h-106zM827 1589v125h107v-125h-107z" />
<glyph unicode="&#xcc;" horiz-adv-x="524" d="M23 1747l75 39l199 -219h-59zM227 0v1434h70v-1434h-70z" />
<glyph unicode="&#xcd;" horiz-adv-x="524" d="M227 0v1434h70v-1434h-70zM229 1567l199 219l76 -39l-215 -180h-60z" />
<glyph unicode="&#xce;" horiz-adv-x="524" d="M18 1567l213 207h62l213 -207h-70l-174 141l-176 -141h-68zM227 0v1434h70v-1434h-70z" />
<glyph unicode="&#xcf;" horiz-adv-x="524" d="M53 1589v125h107v-125h-107zM227 0v1434h70v-1434h-70zM369 1589v125h106v-125h-106z" />
<glyph unicode="&#xd0;" horiz-adv-x="1652" d="M121 688v66h153v680h467q166 0 309 -55.5t242 -151t155 -227t56 -281.5v-4q0 -150 -56 -281.5t-155 -227t-242 -151t-309 -55.5h-467v688h-153zM344 63h399q201 0 359.5 87t244 235t85.5 328v4q0 135 -50.5 254.5t-139.5 207.5t-219 139.5t-282 51.5h-397v-616h500v-66 h-500v-625z" />
<glyph unicode="&#xd1;" horiz-adv-x="1605" d="M213 0v1434h63l1049 -1315v1315h68v-1434h-56l-1056 1325v-1325h-68zM528 1569q43 162 156 162q43 0 145 -52q80 -43 119 -43q37 0 62.5 24.5t48.5 84.5l45 -12q-40 -162 -156 -162q-47 0 -143 51q-84 43 -119 43q-37 0 -62.5 -24.5t-48.5 -84.5z" />
<glyph unicode="&#xd2;" horiz-adv-x="1730" d="M150 715v4q0 146 51.5 280t143 236t227.5 162.5t294 60.5t294 -60.5t227 -162.5t142.5 -236t51.5 -280v-4q0 -146 -51.5 -280.5t-143.5 -236.5t-228 -162.5t-294 -60.5q-127 0 -240.5 39t-199 109t-148 162.5t-94.5 202.5t-32 227zM221 717q0 -135 48 -258.5 t131.5 -216.5t205.5 -148t262 -55q139 0 260 54.5t204 146.5t130 215t47 258v4q0 135 -48 258.5t-131 216.5t-205 148t-261 55q-140 0 -261.5 -54.5t-204.5 -146.5t-130 -215t-47 -258v-4zM625 1761l75 39l199 -219h-59z" />
<glyph unicode="&#xd3;" horiz-adv-x="1730" d="M150 715v4q0 146 51.5 280t143 236t227.5 162.5t294 60.5t294 -60.5t227 -162.5t142.5 -236t51.5 -280v-4q0 -146 -51.5 -280.5t-143.5 -236.5t-228 -162.5t-294 -60.5q-127 0 -240.5 39t-199 109t-148 162.5t-94.5 202.5t-32 227zM221 717q0 -135 48 -258.5 t131.5 -216.5t205.5 -148t262 -55q139 0 260 54.5t204 146.5t130 215t47 258v4q0 135 -48 258.5t-131 216.5t-205 148t-261 55q-140 0 -261.5 -54.5t-204.5 -146.5t-130 -215t-47 -258v-4zM831 1581l199 219l76 -39l-215 -180h-60z" />
<glyph unicode="&#xd4;" horiz-adv-x="1730" d="M150 715v4q0 146 51.5 280t143 236t227.5 162.5t294 60.5t294 -60.5t227 -162.5t142.5 -236t51.5 -280v-4q0 -146 -51.5 -280.5t-143.5 -236.5t-228 -162.5t-294 -60.5q-127 0 -240.5 39t-199 109t-148 162.5t-94.5 202.5t-32 227zM221 717q0 -135 48 -258.5 t131.5 -216.5t205.5 -148t262 -55q139 0 260 54.5t204 146.5t130 215t47 258v4q0 135 -48 258.5t-131 216.5t-205 148t-261 55q-140 0 -261.5 -54.5t-204.5 -146.5t-130 -215t-47 -258v-4zM621 1581l213 207h61l213 -207h-70l-174 141l-176 -141h-67z" />
<glyph unicode="&#xd5;" horiz-adv-x="1730" d="M150 715v4q0 146 51.5 280t143 236t227.5 162.5t294 60.5t294 -60.5t227 -162.5t142.5 -236t51.5 -280v-4q0 -146 -51.5 -280.5t-143.5 -236.5t-228 -162.5t-294 -60.5q-127 0 -240.5 39t-199 109t-148 162.5t-94.5 202.5t-32 227zM221 717q0 -135 48 -258.5 t131.5 -216.5t205.5 -148t262 -55q139 0 260 54.5t204 146.5t130 215t47 258v4q0 135 -48 258.5t-131 216.5t-205 148t-261 55q-140 0 -261.5 -54.5t-204.5 -146.5t-130 -215t-47 -258v-4zM582 1593q43 162 155 162q46 0 146 -51q80 -43 118 -43t63 24t48 84l45 -12 q-40 -162 -156 -162q-45 0 -143 52q-84 43 -119 43q-37 0 -62 -24t-48 -85z" />
<glyph unicode="&#xd6;" horiz-adv-x="1730" d="M150 715v4q0 146 51.5 280t143 236t227.5 162.5t294 60.5t294 -60.5t227 -162.5t142.5 -236t51.5 -280v-4q0 -146 -51.5 -280.5t-143.5 -236.5t-228 -162.5t-294 -60.5q-127 0 -240.5 39t-199 109t-148 162.5t-94.5 202.5t-32 227zM221 717q0 -135 48 -258.5 t131.5 -216.5t205.5 -148t262 -55q139 0 260 54.5t204 146.5t130 215t47 258v4q0 135 -48 258.5t-131 216.5t-205 148t-261 55q-140 0 -261.5 -54.5t-204.5 -146.5t-130 -215t-47 -258v-4zM655 1604v125h107v-125h-107zM971 1604v125h106v-125h-106z" />
<glyph unicode="&#xd7;" horiz-adv-x="1245" d="M193 334l387 385l-387 385l47 47l385 -387l385 387l43 -43l-387 -385l387 -385l-47 -47l-385 387l-385 -387z" />
<glyph unicode="&#xd8;" horiz-adv-x="1730" d="M147 -10l195 209q-92 103 -142 236.5t-50 279.5v4q0 146 51.5 280t143 236t227.5 162.5t294 60.5q285 0 480 -182l155 168h82l-197 -211q94 -101 144.5 -234.5t50.5 -279.5v-4q0 -146 -51.5 -280.5t-143.5 -236.5t-228 -162.5t-294 -60.5q-282 0 -479 181l-156 -166h-82z M219 719q0 -279 170 -471l911 979q-181 170 -436 170q-187 0 -336 -93t-229 -246.5t-80 -336.5v-2zM428 207q181 -170 440 -170q140 0 261.5 54.5t204.5 146.5t130 215.5t47 259.5v2q0 135 -44 257t-126 214z" />
<glyph unicode="&#xd9;" horiz-adv-x="1546" d="M190 618v816h70v-811q0 -280 139 -431t377 -151t374 147.5t136 429.5v816h70v-809q0 -313 -157.5 -480.5t-424.5 -167.5q-130 0 -236.5 41t-184.5 120t-120.5 201.5t-42.5 278.5zM532 1737l76 39l199 -220h-59z" />
<glyph unicode="&#xda;" horiz-adv-x="1546" d="M190 618v816h70v-811q0 -280 139 -431t377 -151t374 147.5t136 429.5v816h70v-809q0 -313 -157.5 -480.5t-424.5 -167.5q-130 0 -236.5 41t-184.5 120t-120.5 201.5t-42.5 278.5zM739 1556l199 220l76 -39l-215 -181h-60z" />
<glyph unicode="&#xdb;" horiz-adv-x="1546" d="M190 618v816h70v-811q0 -280 139 -431t377 -151t374 147.5t136 429.5v816h70v-809q0 -313 -157.5 -480.5t-424.5 -167.5q-130 0 -236.5 41t-184.5 120t-120.5 201.5t-42.5 278.5zM528 1556l213 207h62l213 -207h-70l-174 142l-176 -142h-68z" />
<glyph unicode="&#xdc;" horiz-adv-x="1546" d="M190 618v816h70v-811q0 -280 139 -431t377 -151t374 147.5t136 429.5v816h70v-809q0 -313 -157.5 -480.5t-424.5 -167.5q-130 0 -236.5 41t-184.5 120t-120.5 201.5t-42.5 278.5zM563 1579v125h107v-125h-107zM879 1579v125h106v-125h-106z" />
<glyph unicode="&#xdd;" horiz-adv-x="1394" d="M53 1434h86l561 -785l557 785h84l-608 -846v-588h-69v588zM662 1556l198 220l76 -39l-215 -181h-59z" />
<glyph unicode="&#xde;" horiz-adv-x="1372" d="M211 0v1434h70v-271h442q253 0 398 -115t145 -317v-4q0 -212 -153.5 -329t-405.5 -117h-426v-281h-70zM281 344h428q224 0 355.5 101t131.5 278v4q0 177 -128 275t-351 98h-436v-756z" />
<glyph unicode="&#xdf;" horiz-adv-x="1210" d="M190 0v1032q0 215 111 345t307 130q170 0 279.5 -102t109.5 -250v-4q0 -139 -91.5 -238.5t-239.5 -150.5q122 -17 214.5 -61.5t149.5 -123.5t57 -182v-4q0 -183 -145.5 -290t-382.5 -107v61q209 3 334 90.5t125 243.5v4q0 145 -122 229t-337 99v57q167 46 267 138 t100 231v4q0 122 -91.5 208.5t-228.5 86.5q-164 0 -257 -114t-93 -302v-1030h-66z" />
<glyph unicode="&#xe0;" d="M104 291v4q0 157 127 244.5t330 87.5q193 0 369 -58v70q0 172 -97 260t-272 88q-164 0 -336 -86l-24 57q190 91 364 91q215 0 328 -113q102 -105 102 -293v-643h-65v215q-46 -98 -158 -169t-276 -71q-76 0 -145.5 20.5t-125 58.5t-88.5 99.5t-33 137.5zM174 295 q0 -122 94.5 -190t231.5 -68q184 0 308 101.5t124 242.5v127q-173 57 -373 57q-174 0 -279.5 -70.5t-105.5 -195.5v-4zM358 1427l80 39l178 -247h-51z" />
<glyph unicode="&#xe1;" d="M104 291v4q0 157 127 244.5t330 87.5q193 0 369 -58v70q0 172 -97 260t-272 88q-164 0 -336 -86l-24 57q190 91 364 91q215 0 328 -113q102 -105 102 -293v-643h-65v215q-46 -98 -158 -169t-276 -71q-76 0 -145.5 20.5t-125 58.5t-88.5 99.5t-33 137.5zM174 295 q0 -122 94.5 -190t231.5 -68q184 0 308 101.5t124 242.5v127q-173 57 -373 57q-174 0 -279.5 -70.5t-105.5 -195.5v-4zM553 1219l178 247l80 -39l-207 -208h-51z" />
<glyph unicode="&#xe2;" d="M104 291v4q0 157 127 244.5t330 87.5q193 0 369 -58v70q0 172 -97 260t-272 88q-164 0 -336 -86l-24 57q190 91 364 91q215 0 328 -113q102 -105 102 -293v-643h-65v215q-46 -98 -158 -169t-276 -71q-76 0 -145.5 20.5t-125 58.5t-88.5 99.5t-33 137.5zM174 295 q0 -122 94.5 -190t231.5 -68q184 0 308 101.5t124 242.5v127q-173 57 -373 57q-174 0 -279.5 -70.5t-105.5 -195.5v-4zM348 1219l211 237h49l211 -237h-59l-176 161l-176 -161h-60z" />
<glyph unicode="&#xe3;" d="M104 291v4q0 157 127 244.5t330 87.5q193 0 369 -58v70q0 172 -97 260t-272 88q-164 0 -336 -86l-24 57q190 91 364 91q215 0 328 -113q102 -105 102 -293v-643h-65v215q-46 -98 -158 -169t-276 -71q-76 0 -145.5 20.5t-125 58.5t-88.5 99.5t-33 137.5zM174 295 q0 -122 94.5 -190t231.5 -68q184 0 308 101.5t124 242.5v127q-173 57 -373 57q-174 0 -279.5 -70.5t-105.5 -195.5v-4zM301 1229q22 94 61.5 135t96.5 41q6 0 12.5 -1t12.5 -2t14 -4t13.5 -4.5t14.5 -6t14 -6.5t15.5 -7.5t14 -7.5t15.5 -8t15 -8t14.5 -8.5t15.5 -8.5 t14 -7.5t15 -7.5t13.5 -6t14 -6t12.5 -4t13 -3t11 -1q38 0 63 26.5t48 92.5l45 -10q-22 -94 -61.5 -134t-96.5 -40q-41 0 -141 53q-85 51 -123 51t-63 -25.5t-48 -92.5z" />
<glyph unicode="&#xe4;" d="M104 291v4q0 157 127 244.5t330 87.5q193 0 369 -58v70q0 172 -97 260t-272 88q-164 0 -336 -86l-24 57q190 91 364 91q215 0 328 -113q102 -105 102 -293v-643h-65v215q-46 -98 -158 -169t-276 -71q-76 0 -145.5 20.5t-125 58.5t-88.5 99.5t-33 137.5zM174 295 q0 -122 94.5 -190t231.5 -68q184 0 308 101.5t124 242.5v127q-173 57 -373 57q-174 0 -279.5 -70.5t-105.5 -195.5v-4zM387 1241v127h100v-127h-100zM680 1241v127h100v-127h-100z" />
<glyph unicode="&#xe5;" d="M104 291v4q0 157 127 244.5t330 87.5q193 0 369 -58v70q0 172 -97 260t-272 88q-164 0 -336 -86l-24 57q190 91 364 91q215 0 328 -113q102 -105 102 -293v-643h-65v215q-46 -98 -158 -169t-276 -71q-76 0 -145.5 20.5t-125 58.5t-88.5 99.5t-33 137.5zM174 295 q0 -122 94.5 -190t231.5 -68q184 0 308 101.5t124 242.5v127q-173 57 -373 57q-174 0 -279.5 -70.5t-105.5 -195.5v-4zM379 1411q0 82 60 139.5t145 57.5t144.5 -57.5t59.5 -139.5q0 -80 -60 -137t-144 -57q-85 0 -145 57t-60 137zM430 1411q0 -63 45 -107t109 -44t108.5 44 t44.5 107t-44.5 108.5t-108.5 45.5t-109 -45.5t-45 -108.5z" />
<glyph unicode="&#xe6;" horiz-adv-x="1986" d="M104 291v4q0 157 126.5 244.5t326.5 87.5q186 0 356 -56l7 72q-1 170 -97 257t-268 87q-158 0 -330 -86l-24 57q190 91 358 91q167 0 272 -72.5t134 -216.5q58 136 174 216.5t264 80.5q113 0 205 -46t150 -122.5t89 -173t31 -201.5q0 -14 -2 -22h-895q9 -204 136 -329.5 t304 -125.5q230 0 375 180l47 -41q-160 -201 -424 -201q-135 0 -250 65.5t-182 180.5q-73 -103 -199 -174.5t-282 -71.5q-110 0 -199.5 34.5t-146 107.5t-56.5 174zM174 295q0 -123 94 -190.5t242 -67.5q142 0 261.5 69.5t186.5 174.5q-44 103 -47 229q-163 55 -356 55 q-171 0 -276 -70.5t-105 -195.5v-4zM981 551h825q-5 86 -33 164.5t-77 141.5t-125.5 100.5t-169.5 37.5q-176 0 -293.5 -126t-126.5 -318z" />
<glyph unicode="&#xe7;" horiz-adv-x="1157" d="M119 514v4q0 144 69 267.5t191 197.5t268 74q131 0 228.5 -50.5t183.5 -140.5l-47 -47q-165 176 -367 176q-193 0 -325 -139t-132 -336v-4q0 -196 134.5 -337.5t326.5 -141.5q205 0 371 184l47 -41q-168 -197 -401 -205l-142 -270l-71 35l155 237q-137 9 -249.5 83.5 t-176 194.5t-63.5 259z" />
<glyph unicode="&#xe8;" horiz-adv-x="1193" d="M119 516v4q0 150 63.5 273t176.5 193.5t253 70.5q113 0 204.5 -45.5t149 -122.5t88.5 -173.5t31 -201.5v-22h-895q9 -205 136.5 -330t306.5 -125q114 0 209.5 52.5t161.5 137.5l49 -39q-163 -213 -422 -213q-104 0 -197.5 38.5t-163 107.5t-110.5 171.5t-41 223.5z M190 551h824q-4 86 -32 164.5t-77.5 141.5t-126.5 100.5t-170 37.5q-174 0 -291.5 -126t-126.5 -318zM383 1427l80 39l178 -247h-51z" />
<glyph unicode="&#xe9;" horiz-adv-x="1193" d="M119 516v4q0 150 63.5 273t176.5 193.5t253 70.5q113 0 204.5 -45.5t149 -122.5t88.5 -173.5t31 -201.5v-22h-895q9 -205 136.5 -330t306.5 -125q114 0 209.5 52.5t161.5 137.5l49 -39q-163 -213 -422 -213q-104 0 -197.5 38.5t-163 107.5t-110.5 171.5t-41 223.5z M190 551h824q-4 86 -32 164.5t-77.5 141.5t-126.5 100.5t-170 37.5q-174 0 -291.5 -126t-126.5 -318zM578 1219l178 247l80 -39l-207 -208h-51z" />
<glyph unicode="&#xea;" horiz-adv-x="1193" d="M119 516v4q0 150 63.5 273t176.5 193.5t253 70.5q113 0 204.5 -45.5t149 -122.5t88.5 -173.5t31 -201.5v-22h-895q9 -205 136.5 -330t306.5 -125q114 0 209.5 52.5t161.5 137.5l49 -39q-163 -213 -422 -213q-104 0 -197.5 38.5t-163 107.5t-110.5 171.5t-41 223.5z M190 551h824q-4 86 -32 164.5t-77.5 141.5t-126.5 100.5t-170 37.5q-174 0 -291.5 -126t-126.5 -318zM375 1219l211 237h49l211 -237h-60l-176 161l-176 -161h-59z" />
<glyph unicode="&#xeb;" horiz-adv-x="1193" d="M119 516v4q0 150 63.5 273t176.5 193.5t253 70.5q113 0 204.5 -45.5t149 -122.5t88.5 -173.5t31 -201.5v-22h-895q9 -205 136.5 -330t306.5 -125q114 0 209.5 52.5t161.5 137.5l49 -39q-163 -213 -422 -213q-104 0 -197.5 38.5t-163 107.5t-110.5 171.5t-41 223.5z M190 551h824q-4 86 -32 164.5t-77.5 141.5t-126.5 100.5t-170 37.5q-174 0 -291.5 -126t-126.5 -318zM414 1241v127h100v-127h-100zM707 1241v127h100v-127h-100z" />
<glyph unicode="&#xec;" horiz-adv-x="473" d="M10 1427l80 39l178 -247h-51zM203 0v1032h67v-1032h-67z" />
<glyph unicode="&#xed;" horiz-adv-x="473" d="M203 0v1032h67v-1032h-67zM205 1219l178 247l80 -39l-207 -208h-51z" />
<glyph unicode="&#xee;" horiz-adv-x="473" d="M0 1219l211 237h49l211 -237h-59l-176 161l-177 -161h-59zM203 0v1032h67v-1032h-67z" />
<glyph unicode="&#xef;" horiz-adv-x="473" d="M39 1241v127h100v-127h-100zM203 0v1032h67v-1032h-67zM332 1241v127h100v-127h-100z" />
<glyph unicode="&#xf0;" horiz-adv-x="1298" d="M117 514v4q0 149 71 271t190 190t259 68q244 0 412 -187q-101 225 -353 445l-223 -129l-33 49l209 121q-76 64 -198 149h106q94 -69 150 -115l206 121l33 -51l-192 -113q194 -174 310 -372.5t116 -403.5v-4q0 -254 -150 -418t-383 -164q-111 0 -209.5 41.5t-168.5 113 t-111 171.5t-41 213zM188 512q0 -201 133.5 -338t329.5 -137q195 0 326 142t131 347v4q0 195 -133 325t-334 130q-128 0 -232.5 -63t-162.5 -170t-58 -236v-4z" />
<glyph unicode="&#xf1;" horiz-adv-x="1249" d="M190 0v1032h66v-246q19 49 51.5 94.5t80.5 86.5t117 65.5t148 24.5q200 0 313 -124t113 -329v-604h-65v594q0 184 -96 292.5t-273 108.5q-164 0 -276.5 -118.5t-112.5 -294.5v-582h-66zM350 1229q22 94 61.5 135t96.5 41q6 0 12.5 -1t12.5 -2t14 -4t13.5 -4.5t14.5 -6 t14 -6.5t15.5 -7.5t14 -7.5t15.5 -8t15 -8t14.5 -8.5t15.5 -8.5t14 -7.5t15 -7.5t13.5 -6t14 -6t12.5 -4t13 -3t11 -1q38 0 63 26.5t48 92.5l45 -10q-22 -94 -61.5 -134t-96.5 -40q-41 0 -141 53q-85 51 -123 51t-63 -25.5t-48 -92.5z" />
<glyph unicode="&#xf2;" horiz-adv-x="1302" d="M117 512v4q0 144 67 267.5t191 198.5t278 75q153 0 276.5 -74t190 -196.5t66.5 -266.5v-4q0 -144 -66.5 -267.5t-190.5 -198.5t-278 -75q-153 0 -276.5 74t-190.5 196.5t-67 266.5zM188 514q0 -129 59.5 -238t167 -174t238.5 -65q133 0 239.5 65t165 174t58.5 238v4 q0 129 -60 238t-168 174t-239 65q-200 0 -330.5 -139t-130.5 -338v-4zM424 1427l80 39l178 -247h-51z" />
<glyph unicode="&#xf3;" horiz-adv-x="1302" d="M117 512v4q0 144 67 267.5t191 198.5t278 75q153 0 276.5 -74t190 -196.5t66.5 -266.5v-4q0 -144 -66.5 -267.5t-190.5 -198.5t-278 -75q-153 0 -276.5 74t-190.5 196.5t-67 266.5zM188 514q0 -129 59.5 -238t167 -174t238.5 -65q133 0 239.5 65t165 174t58.5 238v4 q0 129 -60 238t-168 174t-239 65q-200 0 -330.5 -139t-130.5 -338v-4zM618 1219l179 247l80 -39l-207 -208h-52z" />
<glyph unicode="&#xf4;" horiz-adv-x="1302" d="M117 512v4q0 144 67 267.5t191 198.5t278 75q153 0 276.5 -74t190 -196.5t66.5 -266.5v-4q0 -144 -66.5 -267.5t-190.5 -198.5t-278 -75q-153 0 -276.5 74t-190.5 196.5t-67 266.5zM188 514q0 -129 59.5 -238t167 -174t238.5 -65q133 0 239.5 65t165 174t58.5 238v4 q0 129 -60 238t-168 174t-239 65q-200 0 -330.5 -139t-130.5 -338v-4zM416 1219l211 237h49l211 -237h-60l-176 161l-176 -161h-59z" />
<glyph unicode="&#xf5;" horiz-adv-x="1302" d="M117 512v4q0 144 67 267.5t191 198.5t278 75q153 0 276.5 -74t190 -196.5t66.5 -266.5v-4q0 -144 -66.5 -267.5t-190.5 -198.5t-278 -75q-153 0 -276.5 74t-190.5 196.5t-67 266.5zM188 514q0 -129 59.5 -238t167 -174t238.5 -65q133 0 239.5 65t165 174t58.5 238v4 q0 129 -60 238t-168 174t-239 65q-200 0 -330.5 -139t-130.5 -338v-4zM367 1229q22 94 61 135t96 41q19 0 46.5 -10t42 -17t53.5 -28q4 -2 19 -10.5t19.5 -11t17.5 -9t19 -9t15.5 -6t17 -5t14.5 -1.5q38 0 63 26.5t48 92.5l45 -10q-22 -94 -61.5 -134t-96.5 -40 q-41 0 -141 53q-85 51 -123 51t-62.5 -25.5t-47.5 -92.5z" />
<glyph unicode="&#xf6;" horiz-adv-x="1302" d="M117 512v4q0 144 67 267.5t191 198.5t278 75q153 0 276.5 -74t190 -196.5t66.5 -266.5v-4q0 -144 -66.5 -267.5t-190.5 -198.5t-278 -75q-153 0 -276.5 74t-190.5 196.5t-67 266.5zM188 514q0 -129 59.5 -238t167 -174t238.5 -65q133 0 239.5 65t165 174t58.5 238v4 q0 129 -60 238t-168 174t-239 65q-200 0 -330.5 -139t-130.5 -338v-4zM455 1241v127h100v-127h-100zM748 1241v127h100v-127h-100z" />
<glyph unicode="&#xf7;" horiz-adv-x="1245" d="M143 690v62h959v-62h-959zM567 236v137h111v-137h-111zM567 1069v137h111v-137h-111z" />
<glyph unicode="&#xf8;" horiz-adv-x="1302" d="M111 -10l147 153q-141 154 -141 369v4q0 144 67 267.5t191 198.5t278 75q202 0 353 -131l110 118h78l-150 -155q67 -75 104.5 -170.5t37.5 -198.5v-4q0 -144 -66.5 -267.5t-190.5 -198.5t-278 -75q-206 0 -354 129l-109 -114h-77zM186 516q0 -193 117 -326l658 689 q-129 116 -312 116q-133 0 -239.5 -65t-165 -174t-58.5 -238v-2zM342 152q128 -115 311 -115q134 0 240.5 65t164.5 173.5t58 238.5v2q0 191 -119 326z" />
<glyph unicode="&#xf9;" horiz-adv-x="1249" d="M170 428v604h66v-594q0 -184 96 -292.5t272 -108.5q164 0 276.5 119t112.5 295v581h66v-1032h-66v246q-19 -49 -51.5 -94.5t-80.5 -86.5t-117 -65.5t-148 -24.5q-200 0 -313 124t-113 329zM387 1421l80 39l178 -248h-51z" />
<glyph unicode="&#xfa;" horiz-adv-x="1249" d="M170 428v604h66v-594q0 -184 96 -292.5t272 -108.5q164 0 276.5 119t112.5 295v581h66v-1032h-66v246q-19 -49 -51.5 -94.5t-80.5 -86.5t-117 -65.5t-148 -24.5q-200 0 -313 124t-113 329zM582 1212l178 248l80 -39l-207 -209h-51z" />
<glyph unicode="&#xfb;" horiz-adv-x="1249" d="M170 428v604h66v-594q0 -184 96 -292.5t272 -108.5q164 0 276.5 119t112.5 295v581h66v-1032h-66v246q-19 -49 -51.5 -94.5t-80.5 -86.5t-117 -65.5t-148 -24.5q-200 0 -313 124t-113 329zM377 1212l211 238h49l211 -238h-60l-176 162l-176 -162h-59z" />
<glyph unicode="&#xfc;" horiz-adv-x="1249" d="M170 428v604h66v-594q0 -184 96 -292.5t272 -108.5q164 0 276.5 119t112.5 295v581h66v-1032h-66v246q-19 -49 -51.5 -94.5t-80.5 -86.5t-117 -65.5t-148 -24.5q-200 0 -313 124t-113 329zM416 1235v127h100v-127h-100zM709 1235v127h100v-127h-100z" />
<glyph unicode="&#xfd;" horiz-adv-x="1181" d="M84 1032h74l454 -960l416 960h70l-465 -1059q-79 -178 -153 -242.5t-183 -64.5q-102 0 -199 51l27 56q82 -45 174 -45q89 0 149 57t132 217zM563 1212l178 248l80 -39l-207 -209h-51z" />
<glyph unicode="&#xfe;" horiz-adv-x="1345" d="M190 -328v1823h66v-747q57 137 176.5 223t280.5 86q104 0 197.5 -40.5t162.5 -110.5t109.5 -171t40.5 -217v-4q0 -115 -40.5 -216t-109.5 -171.5t-162.5 -111t-197.5 -40.5q-163 0 -282 85.5t-175 220.5v-609h-66zM252 514q0 -199 133 -337t322 -138q195 0 320.5 133 t125.5 340v4q0 204 -127 340.5t-319 136.5q-191 0 -323 -138t-132 -337v-4z" />
<glyph unicode="&#xff;" horiz-adv-x="1181" d="M84 1032h74l454 -960l416 960h70l-465 -1059q-79 -178 -153 -242.5t-183 -64.5q-102 0 -199 51l27 56q82 -45 174 -45q89 0 149 57t132 217zM397 1235v127h101v-127h-101zM690 1235v127h101v-127h-101z" />
<glyph unicode="&#x152;" horiz-adv-x="2375" d="M150 715v4q0 150 56 281.5t155 227t241.5 151t308.5 55.5h1325v-64h-909v-616h819v-64h-819v-627h920v-63h-1336q-166 0 -308.5 55.5t-241.5 151t-155 227t-56 281.5zM221 717q0 -135 50 -255t139.5 -208t219.5 -139.5t283 -51.5h344v1307h-348q-151 0 -280.5 -50.5 t-218.5 -138t-139 -206.5t-50 -254v-4z" />
<glyph unicode="&#x153;" horiz-adv-x="2187" d="M117 512v4q0 144 67 267.5t190.5 198.5t276.5 75q179 0 313.5 -99.5t182.5 -261.5q44 165 169 263t290 98q113 0 204.5 -45.5t149 -122.5t88.5 -173.5t31 -201.5v-22h-897q9 -204 136.5 -329.5t305.5 -125.5q230 0 375 180l47 -41q-164 -201 -424 -201q-167 0 -298 97.5 t-177 267.5q-48 -163 -182.5 -264t-315.5 -101q-152 0 -275 74t-190 196.5t-67 266.5zM188 514q0 -129 59.5 -238t167 -174t238.5 -65q133 0 239.5 65t165 174t58.5 238v4q0 129 -60 238t-168 174t-239 65q-200 0 -330.5 -139t-130.5 -338v-4zM1182 551h825q-4 86 -32 164.5 t-77 141.5t-126 100.5t-170 37.5q-175 0 -292 -126t-128 -318z" />
<glyph unicode="&#x178;" horiz-adv-x="1394" d="M53 1434h86l561 -785l557 785h84l-608 -846v-588h-69v588zM485 1579v125h107v-125h-107zM801 1579v125h106v-125h-106z" />
<glyph unicode="&#x2c6;" horiz-adv-x="1024" d="M276 1219l211 237h50l211 -237h-60l-176 161l-176 -161h-60z" />
<glyph unicode="&#x2dc;" horiz-adv-x="1024" d="M223 1229q22 94 61.5 135t96.5 41q6 0 12.5 -1t12.5 -2t14 -4t13.5 -4.5t14.5 -6t14 -6.5t15.5 -7.5t14 -7.5t15.5 -8t15 -8t14.5 -8.5t15.5 -8.5t14 -7.5t15 -7.5t13.5 -6t14 -6t12.5 -4t13 -3t11 -1q38 0 63 26.5t48 92.5l45 -10q-22 -94 -61.5 -134t-96.5 -40 q-41 0 -141 53q-85 51 -123 51t-63 -25.5t-48 -92.5z" />
<glyph unicode="&#x2000;" horiz-adv-x="900" />
<glyph unicode="&#x2001;" horiz-adv-x="1800" />
<glyph unicode="&#x2002;" horiz-adv-x="900" />
<glyph unicode="&#x2003;" horiz-adv-x="1800" />
<glyph unicode="&#x2004;" horiz-adv-x="600" />
<glyph unicode="&#x2005;" horiz-adv-x="450" />
<glyph unicode="&#x2006;" horiz-adv-x="300" />
<glyph unicode="&#x2007;" horiz-adv-x="300" />
<glyph unicode="&#x2008;" horiz-adv-x="225" />
<glyph unicode="&#x2009;" horiz-adv-x="360" />
<glyph unicode="&#x200a;" horiz-adv-x="100" />
<glyph unicode="&#x2010;" horiz-adv-x="811" d="M143 573v72h525v-72h-525z" />
<glyph unicode="&#x2011;" horiz-adv-x="811" d="M143 573v72h525v-72h-525z" />
<glyph unicode="&#x2012;" horiz-adv-x="811" d="M143 573v72h525v-72h-525z" />
<glyph unicode="&#x2013;" horiz-adv-x="1093" d="M143 575v66h807v-66h-807z" />
<glyph unicode="&#x2014;" horiz-adv-x="1835" d="M143 575v66h1549v-66h-1549z" />
<glyph unicode="&#x2018;" horiz-adv-x="389" d="M141 1120v117q0 89 26 134.5t89 70.5l18 -37q-46 -23 -63 -58t-14 -94h43v-133h-99z" />
<glyph unicode="&#x2019;" horiz-adv-x="389" d="M117 1149q45 23 63 58t15 93h-45v134h98v-117q0 -89 -26 -134.5t-87 -70.5z" />
<glyph unicode="&#x201a;" horiz-adv-x="389" d="M113 -152q45 23 62.5 58.5t14.5 93.5h-45v133h99v-117q0 -89 -26 -133.5t-87 -68.5z" />
<glyph unicode="&#x201c;" horiz-adv-x="647" d="M141 1120v117q0 89 26 134.5t89 70.5l18 -37q-46 -23 -63 -58t-14 -94h43v-133h-99zM399 1120v117q0 89 26 134.5t89 70.5l18 -37q-46 -23 -63 -58t-14 -94h43v-133h-99z" />
<glyph unicode="&#x201d;" horiz-adv-x="647" d="M117 1149q45 23 63 58t15 93h-45v134h98v-117q0 -89 -26 -134.5t-87 -70.5zM375 1149q45 23 63 58t15 93h-45v134h98v-117q0 -89 -26 -134.5t-87 -70.5z" />
<glyph unicode="&#x201e;" horiz-adv-x="647" d="M113 -152q45 23 62.5 58.5t14.5 93.5h-45v133h99v-117q0 -89 -26 -133.5t-87 -68.5zM371 -152q45 23 63 58.5t15 93.5h-46v133h99v-117q0 -89 -26 -133.5t-87 -68.5z" />
<glyph unicode="&#x2022;" horiz-adv-x="913" d="M225 721v4q0 93 70 160t164 67q93 0 162 -67t69 -160v-4q0 -95 -68 -162t-163 -67q-96 0 -165 67t-69 162z" />
<glyph unicode="&#x2026;" horiz-adv-x="1150" d="M145 0v131h97v-131h-97zM528 0v131h97v-131h-97zM909 0v131h97v-131h-97z" />
<glyph unicode="&#x202f;" horiz-adv-x="360" />
<glyph unicode="&#x2039;" horiz-adv-x="614" d="M96 516v12l346 424l45 -32l-313 -398l313 -397l-45 -33z" />
<glyph unicode="&#x203a;" horiz-adv-x="614" d="M125 125l313 397l-313 398l45 32l348 -424v-12l-348 -424z" />
<glyph unicode="&#x205f;" horiz-adv-x="450" />
<glyph unicode="&#x20ac;" horiz-adv-x="1474" d="M109 520v64h180q-8 55 -8 131q0 89 10 153h-182v66h196q52 232 201.5 378t351.5 146q169 0 286 -75.5t204 -213.5l-56 -36q-83 130 -184 197t-252 67q-174 0 -304 -129t-181 -334h616v-66h-629q-12 -74 -12 -151q0 -78 8 -133h633v-64h-622q45 -219 182 -351t327 -132 q140 0 241.5 73t182.5 205l54 -32q-91 -145 -206 -226.5t-274 -81.5q-218 0 -372.5 149t-202.5 396h-188z" />
<glyph unicode="&#x2122;" horiz-adv-x="1372" d="M43 1386v48h481v-48h-217v-583h-47v583h-217zM666 803v631h47l258 -379l258 379h47v-631h-47v545l-256 -371h-6l-254 371v-545h-47z" />
<glyph unicode="&#x25fc;" horiz-adv-x="1034" d="M0 0v1034h1034v-1034h-1034z" />
</font>
</defs>
</svg>
